<?xml version="1.0" standalone="no"?><!DOCTYPE svg PUBLIC "-//W3C//DTD SVG 1.1//EN" "http://www.w3.org/Graphics/SVG/1.1/DTD/svg11.dtd"><svg class="icon" width="200px" height="200.00px" viewBox="0 0 1024 1024" version="1.1" xmlns="http://www.w3.org/2000/svg"><path fill="#333333" d="M192 320a64 64 0 0 1 64 64v448a64 64 0 0 1-64 64H64c-35.296 0-64-28.672-64-64V384c0-35.328 28.704-64 64-64h128z m384-192a64 64 0 0 1 64 64v640a64 64 0 0 1-64 64h-128c-35.296 0-64-28.672-64-64V192c0-35.328 28.704-64 64-64h128z m384 320a64 64 0 0 1 64 64v320a64 64 0 0 1-64 64h-128a64 64 0 0 1-64-64V512a64 64 0 0 1 64-64h128z"  /></svg>