<?xml version="1.0" standalone="no"?><!DOCTYPE svg PUBLIC "-//W3C//DTD SVG 1.1//EN" "http://www.w3.org/Graphics/SVG/1.1/DTD/svg11.dtd"><svg class="icon" width="200px" height="200.00px" viewBox="0 0 1024 1024" version="1.1" xmlns="http://www.w3.org/2000/svg"><path d="M332.707358 632.845999m-329.392843 0a329.392843 329.392843 0 1 0 658.785686 0 329.392843 329.392843 0 1 0-658.785686 0Z" fill="#EF6809" /><path d="M102.05002 509.941295l116.110977 115.287495v172.478327h170.419622l25.033856 25.404423 96.100362 97.623804 125.333977-122.822356h162.308323v-165.931645l25.157378-24.951508 98.117894-97.541455-123.192924-125.704544V218.222758h-173.219461l-24.951508-25.157378-91.406514-91.859429L388.910012 218.222758H218.078649v175.072296l-24.704463 24.951508z m-90.294813 30.510012A46.691435 46.691435 0 0 1 0.55585 510.105991a48.791315 48.791315 0 0 1 11.652272-30.715882l4.117411-4.117411L132.848251 358.214717V176.472216a46.444391 46.444391 0 0 1 43.7269-43.356333h177.460394L474.058062 15.275593l3.788018-3.664495a46.279694 46.279694 0 0 1 60.690631-0.452915L544.054041 16.469642l115.822758 116.481544H840.5076a45.291516 45.291516 0 0 1 23.551588 8.893607c0.782308 0.69996 1.60579 1.235223 2.388098 1.935183a54.226297 54.226297 0 0 1 5.476156 5.599678 32.939284 32.939284 0 0 1 2.141053 2.882188 44.715078 44.715078 0 0 1 8.728911 24.704463v172.025412l121.628307 124.098753 10.170004 10.293527a44.673904 44.673904 0 0 1 8.687736 27.051387 45.620909 45.620909 0 0 1-6.629031 23.880981l-16.222597 16.057901-117.757942 117.057982v177.048653a46.444391 46.444391 0 0 1-36.315561 38.497788h-176.513389l-125.333977 122.822356-6.834901 7.081947a45.909127 45.909127 0 0 1-28.821874 10.046481 46.485565 46.485565 0 0 1-26.47495-8.234821l-12.352231-12.352231-117.14033-119.487254h-181.166064A46.485565 46.485565 0 0 1 133.095296 839.951749v-179.272055L17.025493 545.59807l-5.229112-5.105589z" fill="#131313" /><path d="M486.163249 553.503498l187.630398-187.630398a40.638842 40.638842 0 1 1 57.643747 57.643748l-197.635705 197.635705a68.760756 68.760756 0 0 1-97.212063 1.523442L321.713872 507.470848a41.915239 41.915239 0 0 1 59.249538-59.249537l105.241013 105.282187z"  /></svg>