<?xml version="1.0" standalone="no"?><!DOCTYPE svg PUBLIC "-//W3C//DTD SVG 1.1//EN" "http://www.w3.org/Graphics/SVG/1.1/DTD/svg11.dtd"><svg class="icon" width="200px" height="200.00px" viewBox="0 0 1024 1024" version="1.1" xmlns="http://www.w3.org/2000/svg"><path d="M422.6 91.4c26.5-12.1 55.1-19.1 84-22.3 31.6-2.5 63.9-1.7 94.9 5.5 47 10.2 91.1 34.1 124.5 68.8 38.7 39.5 63.3 90.9 77.7 143.8 11.6 42.7 17.4 86.7 19.1 130.9 0.8 9.9 0.5 19.8 1.7 29.6-0.5 0.3-1.7 1.2-2.2 1.7-51.4 15.9-104.3 27.3-157.7 34.5-55.2 7-111 10.2-166.6 7.5-84-3.5-167.7-17.6-248.1-42.9 1.8-24.3 1.7-48.9 4.7-73.2 2.8-28.5 7.7-56.6 14.9-84.2 12.1-45.5 31.1-89.9 60.4-126.9 24.6-31.2 56.4-56.6 92.7-72.8z m25.9 92.2c-12 3.5-21.9 12.4-28.3 23.1-9.2 14.7-12.6 32.6-11.5 49.9 0.7 18.7 7.2 37.5 19.4 51.7 8.7 10 21.4 17.6 35 16.9 14.9 0.3 28.3-9.2 36.5-21.1 13.2-19.4 16.6-44.5 12-67.3-4-19.8-14.6-39.3-32.5-49.4-9.3-5.3-20.3-6-30.6-3.8z m161.6-0.8c-13.6 1.5-25.1 10.5-33 21.3-12.2 16.6-17.1 37.8-16.1 58.3 1.5 20.6 9.2 42 26.1 54.9 10.9 8.4 25.9 10.7 38.7 5.9 14.9-5.5 25.6-18.6 32.1-32.6 8.2-17.6 9.5-37.7 6.7-56.8-3.3-16.6-11.1-33-25.1-43.2-8.2-6.7-19-9.2-29.4-7.8z m-90.6 166.7c-34.3 1.2-68.6 3.7-102.4 9.4-15.2 3.2-31.1 5.9-44.7 14.1-4.3 2.7-9.5 8.7-5.5 13.9 5.4 7.5 14.1 11.5 22.1 15.9 27.4 13.6 57.1 22.4 86.9 29.5 20.3 4.4 40.8 8.2 61.6 7.7 16.6 0.3 33-2 49.2-5.2 27-5.4 53.7-12.9 79.3-23.1 11.6-4.7 23.3-9.7 33.6-16.7 4-2.8 8.2-6 9.9-10.9 0.7-4.5-3-8.2-6.4-10.5-8.9-5.7-19.1-8.5-29.1-11.1-20.4-5-41.5-7.2-62.4-9.5-30.8-2.7-61.4-4.5-92.1-3.5" fill="#121213" /><path d="M475.5 231.3c6.9-1.2 13.6 2.7 17.2 8 8.5 12.1 8.2 30.1-1.3 41.5-4.9 5.9-13.7 8.5-20.6 4.7-10.9-6-14.9-20.1-13.1-31.8 1.4-9.7 7.6-20.2 17.8-22.4z m107.1 23.1c9.4-9 22.6-14.9 35.8-14.2 8.5-0.2 17.6 3.2 22.9 10 3.7 4.5-0.2 12.6-6.2 11.6-4.5 0.3-6.2-5.2-10.2-5.9-9.9-1.8-20.3 0-29.1 4.7-5.7 2.8-10.2 8.2-16.9 8.2-4.8-4.7 0-10.5 3.7-14.4z m-419 442.8c11.2-50.4 25.8-99.9 44-148.3 36.7 11 74 20.6 111.5 28.5-0.3 3-0.8 6-1.3 9-3.7 25.6-5 51.4-4.9 77.2-0.8 51.2 7 103.4 29 150 18.6 39.7 48.5 74.2 86.9 95.6 25.6 14.4 54.1 22.9 83.2 25.9 26.6 1.8 53.9 1.5 79.8-5 39.3-9.2 75.8-30.1 103-60.1 15.4-16.7 28-36 37.7-56.6 15.2-32.6 23.9-68.1 26.9-104 2.5-18.6 1.8-37.3 1.8-55.9 0-20.8-1.7-41.3-4-61.9-0.8-4.9-1.5-9.7-2.2-14.6 37.5-7.7 74.7-17.6 111.5-28.3h0.2c18.1 48.2 32.5 97.6 43.9 147.8 5.2 23.6 9 47.4 10 71.7 0.2 12.9 1 26.8-5.4 38.5-3 5.4-9.7 2.3-13.6-0.5-19.1-13.4-35.2-31-47-50.9-8.4-14.1-16.6-28.1-23.4-42.9-3.5 41.3-15.4 82.4-36.3 118.3-14.9 25.6-34.1 48.5-56.9 67.5-33.5 28-74 46.9-116.3 57.1-54.4 12.9-111.8 13.1-166.2 0.8-43.5-10-85.2-29.1-119.5-57.8-36-29.6-62.9-69.6-78-113.7-8-23.3-13.1-47.5-15.2-72.1-6.9 14.9-15.1 29-23.4 43-10.9 18.6-25.8 35-42.9 48-3.5 2.5-7.2 5.4-11.4 6.4-3.7 0.7-6.2-2.7-7.5-5.7-2.7-6.9-3.7-14.4-3.8-21.8-0.7-28.8 3.8-57.3 9.8-85.2z m0 0" fill="#121213" /><path d="M448.5 183.6c10.2-2.2 21.4-1.5 30.6 3.9 17.9 10 28.6 29.8 32.5 49.4 4.5 22.8 1.3 47.9-12 67.3-8.2 11.9-21.6 21.4-36.5 21.1-13.6 0.5-26.3-7-35-16.9-12.4-14.2-18.9-33.1-19.4-51.7-1-17.2 2.3-35 11.5-49.9 6.4-10.7 16.3-19.5 28.3-23.2z m27 47.7c-10.4 2.2-16.4 12.7-17.7 22.6-1.8 11.7 2.2 25.8 13.1 31.8 6.9 3.8 15.7 1.2 20.6-4.7 9.5-11.4 9.9-29.5 1.3-41.5-3.7-5.7-10.4-9.4-17.3-8.2m134.6-48.5c10.4-1.3 21.1 1.3 29.5 7.7 13.9 10.2 21.6 26.6 25.1 43.2 2.8 19.1 1.7 39.2-6.7 56.8-6.5 14.1-17.2 26.9-32.1 32.6-12.9 4.7-28 2.5-38.7-5.9-16.9-12.9-24.6-34.3-26.1-54.9-1-20.4 3.9-41.7 16.1-58.3 7.8-10.7 19.3-19.7 32.9-21.2z m-27.5 71.6c-3.5 3.7-8.4 9.7-3.7 14.6 6.7-0.2 11.2-5.4 16.9-8.2 8.9-4.9 19.2-6.5 29.1-4.7 4.2 0.7 5.7 6.2 10.2 5.9 6.2 1 10-7 6.2-11.5-5.4-6.9-14.4-10.2-22.9-10-13.3-1-26.4 4.9-35.8 13.9" fill="#FFFFFF" /><path d="M519.5 349.5c30.6-1 61.3 0.8 91.7 3.4 20.9 2.2 41.8 4.5 62.4 9.5 10 2.5 20.4 5.2 29.1 11.1 3.3 2.3 6.9 6 6.4 10.5-1.7 4.9-5.9 8-9.9 10.9-10.4 7-21.9 12.1-33.6 16.7-25.6 10.2-52.2 17.7-79.4 23.1-16.2 3.2-32.6 5.5-49.2 5.2-20.8 0.3-41.3-3.5-61.6-7.7-29.8-7-59.3-15.9-86.9-29.5-7.9-4.4-16.6-8.4-22.1-15.9-4-5.2 1.2-11.1 5.5-13.9 13.6-8.2 29.5-10.7 44.7-14.1 34.3-5.8 68.6-8.1 102.9-9.3zM291.9 914.3c14.4-6.2 29.1-11.9 44.2-16.1 34.3 28.6 76.2 47.9 119.5 57.7 54.6 12.4 111.8 12.1 166.2-0.8 42.4-10.2 82.9-29.1 116.3-57.1 19.7 5.9 39.2 13.4 57.7 22.4 10.2 5.2 20.9 12.2 25.3 23.3 1.2 5.4 2 12.4-2.8 16.2-4.9 4.2-11.1 6-16.9 7.9-7.9 1.8-15.7 3.5-23.8 4-31.6 2-63.4 2.2-95.2 2-27.1 0.3-54.1-1.3-81-2.3-10.2-0.5-20.4-2.3-30.6-3-26.1-2.2-52.2-1.8-78.3 1-18.1 2.7-36.3 2.5-54.6 3.5-35.5 1.3-71 1-106.3 0.5-22.8-1.2-46.4 0-68-8.7-5-2.2-11.1-5.5-11.2-11.6-1.2-6.9 1.8-13.6 6.4-18.4 8.8-10 21.3-15.2 33.1-20.5z m0 0" fill="#F8B617" /><path d="M239.5 470.7c3.5-7.4 6.5-15.1 10.5-22.1 80.2 25.3 164.1 39.3 248.1 42.9 55.6 2.7 111.5-0.5 166.6-7.5 53.4-7.2 106.1-18.6 157.7-34.5l2.5-0.7c15.6 32.8 29.5 66.3 41.8 100.4-36.8 10.7-73.8 20.4-111.5 28.3-45.2 9.5-90.9 16.6-136.9 21.1-10.2 0.5-20.4 1.7-30.6 2.5-34.1 1.7-68.3 1.7-102.3 0v119.4c-20.4 1.8-41 1.7-61.4 1.8-21.9 0.2-44-1.2-65.5-6.2V602.3c0-5.7-0.5-11.6-0.5-17.2-13.1-2-26-4.8-38.8-7.4-37.5-7.9-74.7-17.4-111.5-28.5 9.7-26.8 20.2-52.9 31.8-78.5z m0 0" fill="#E22B10" /><path d="M319.1 577.3c12.9 2.5 25.8 5.4 38.8 7.4-0.5 3-1 5.9-1.7 8.9-12.9-1.7-25.6-5-38.5-7.2 0.6-3.1 1.1-6.1 1.4-9.1z m0 0" fill="#E8E8E8" /><path d="M618.5 598.4c46-4.4 91.7-11.6 136.9-21.1 0.5 4.9 1.3 9.7 2.2 14.6-20.3 2.3-39.8 8-60.1 10.9-41 6.5-82.4 11.6-123.9 13.1-9.7-0.3-19.4 1.7-29.3 1.3-10.7-0.2-21.6 0.3-32.3-1-8.9-0.7-17.7 0-26.6-1.3v-14.1c34.1 1.7 68.3 1.7 102.3 0 10.3-0.9 20.5-2.1 30.8-2.4z m0 0" fill="#EBEBEB" /><path d="M358 584.7c0 5.7 0.5 11.6 0.5 17.2v113.8c21.4 5.2 43.5 6.4 65.5 6.2 20.4-0.2 41 0 61.4-1.8v-14.7h235c12.9 0.2 25.8-0.3 38.5 0.2l0.7 4c-3 35.8-11.7 71.3-26.9 104-33.5-1.2-66.8-0.2-100.3-0.5H393.1c-17.1 0.2-34.1-0.7-51.2 0.5-21.9-46.7-29.8-98.8-29-150-0.2-25.8 1.2-51.7 4.9-77.2 12.9 2.2 25.4 5.5 38.5 7.2 0.5-3.1 1-6.1 1.7-8.9z m0 0" fill="#F1F1F1" /><path d="M697.5 602.8c20.1-2.8 39.8-8.5 60.1-10.9 2.3 20.6 4 41.2 4 61.9 0 18.6 0.7 37.3-1.8 55.9l-0.7-4c-12.9-0.5-25.8 0-38.5-0.2-78.3 0.2-156.7 0-235 0V615c8.9 1.3 17.7 0.7 26.6 1.3 10.7 1.3 21.4 1 32.3 1 9.7 0.3 19.4-1.7 29.3-1.3 41.3-1.7 82.7-6.9 123.7-13.2z m0 0" fill="#F5F5F5" /><path d="M341.9 813.5c17.1-1 34.1-0.2 51.2-0.5h239.2c33.5 0.3 67-0.7 100.3 0.5-9.7 20.6-22.3 39.8-37.7 56.6-27.1 29.8-63.8 50.9-102.9 60.1-26.1 6.5-53.2 7-79.8 5-29.1-3-57.8-11.7-83.2-26-38.5-21.4-68.7-56-87.1-95.7z m0 0" fill="#EDEDED" /></svg>