<?xml version="1.0" standalone="no"?><!DOCTYPE svg PUBLIC "-//W3C//DTD SVG 1.1//EN" "http://www.w3.org/Graphics/SVG/1.1/DTD/svg11.dtd"><svg class="icon" width="200px" height="171.52px" viewBox="0 0 1194 1024" version="1.1" xmlns="http://www.w3.org/2000/svg"><path fill="#333333" d="M615.96406267 319.365723c0.30761702 36.97998047-48.95507796 60.02929671-76.66259791 34.93652292-28.74023412-20.56640625-20.58837856-70.64208993 13.16162092-81.03515616 30.16845686-11.86523438 65.85205078 13.57910182 63.50097699 46.09863324m-232.91015617 9.31640591c-6.67968742 32.14599592-49.74609358 47.6367191-74.92675815 26.10351562-29.11376962-20.54443394-20.98388637-71.63085946 13.31542943-81.87011719 33.53027327-12.9418947 71.69677717 21.13769566 61.58935564 55.76660157m257.05810581-148.7548829C544.20136702 125.9404296 424.69208993 117.78857404 321.48652318 155.05419922c-67.80761753 24.41162126-129.1992185 69.80712891-167.10205078 131.61621077C119.9972658 342.37109383 107.05537109 411.87060572 123.71064462 475.61328125c16.63330043 70.77392613 65.67626918 130.07812492 125.41992195 169.71679696a4312.15576197 4312.15576197 0 0 0-32.73925763 98.23974601c37.7270507-19.62158212 75.08056666-40.07812525 112.69775348-60.05126979 45.37353532 14.54589826 93.03222673 21.51123038 140.66894505 19.97314454-12.4145507-36.38671875-15.35888697-75.58593758-9.71191372-113.5546876 9.00878889-52.66845678 37.52929679-100.8764645 76.90429722-136.62597613 66.31347631-62.09472656 160.33447257-88.33007838 249.8291013-82.0239257-16.76513663-82.00195338-74.39941415-151.347656-146.68945304-191.38183585"  /><path fill="#333333" d="M891.03974627 567.50292994c-9.6679691 22.56591762-43.46191398 27.75146459-60.13916059 10.30517544-8.08593785-7.25097682-10.06347691-18.30322248-13.29345712-28.03710929 4.32861363-17.57812535 16.04003872-35.88134782 35.99121094-36.65039037 27.61962916-3.80126962 51.85546883 29.72900365 37.44140677 54.38232422m-184.39453143-3.47168029c-7.91015625 25.04882838-44.4726566 32.60742222-62.02880884 13.46923872-19.42382821-17.57812535-11.86523438-54.53613273 13.57910181-62.35839818 28.3007809-11.93115209 60.86425773 20.63232397 48.44970703 48.88915946m315.00000035-20.25878846c-23.40087865-53.02001918-67.58789054-95.0097658-118.85009766-121.00341831-90.50537135-45.92285165-203.11523403-45.54931615-293.29101605 1.07666033-62.73193368 32.23388672-115.09277344 89.91210963-129.96826181 160.11474636-12.2827145 51.63574184-1.25244115 107.2485349 26.12548871 152.31445243 40.8032224 67.65380825 114.47753941 110.80810522 191.14013655 124.67285173 55.52490226 11.29394497 112.91748047 4.68017603 166.81640608-11.03027335 32.25585903 12.6123046 61.21582014 32.93701154 92.54882812 47.92236302a1843.00048853 1843.00048853 0 0 0-25.88378863-80.72753837c35.06835912-25.04882838 67.03857422-56.16210938 86.26464775-95.2954105 28.60839869-54.49218732 30.32226537-121.99218785 5.09765694-178.04443334"  /></svg>