<?xml version="1.0" standalone="no"?><!DOCTYPE svg PUBLIC "-//W3C//DTD SVG 1.1//EN" "http://www.w3.org/Graphics/SVG/1.1/DTD/svg11.dtd"><svg class="icon" width="200px" height="200.00px" viewBox="0 0 1024 1024" version="1.1" xmlns="http://www.w3.org/2000/svg"><path fill="#333333" d="M192 15.36C140.8 33.28 128 51.2 97.28 145.92 79.36 202.24 48.64 281.6 25.6 327.68c-7.68 15.36-10.24 25.6-10.24 28.16 2.56 2.56 43.52-7.68 61.44-15.36 7.68-2.56 25.6-17.92 35.84-28.16 17.92-17.92 30.72-38.4 43.52-76.8 2.56-5.12 7.68-5.12 58.88-5.12h53.76v40.96c0 46.08-5.12 186.88-10.24 204.8l-2.56 12.8H58.88l-7.68 7.68c-10.24 10.24-25.6 40.96-30.72 61.44l-2.56 10.24h115.2l115.2 2.56-2.56 20.48c-2.56 92.16-56.32 217.6-130.56 304.64-17.92 25.6-76.8 84.48-102.4 102.4-15.36 10.24-15.36 10.24-7.68 15.36 17.92 10.24 81.92 2.56 130.56-15.36 20.48-7.68 28.16-10.24 46.08-30.72 40.96-40.96 81.92-115.2 107.52-192l15.36-43.52 12.8 15.36c7.68 7.68 17.92 23.04 25.6 33.28 71.68 87.04 92.16 112.64 110.08 135.68 28.16 38.4 35.84 48.64 40.96 46.08 2.56-2.56 10.24-48.64 10.24-74.24 0-48.64-2.56-51.2-56.32-115.2-56.32-64-87.04-99.84-92.16-99.84-2.56 0-10.24 7.68-25.6 17.92-10.24 10.24-23.04 17.92-23.04 17.92s0-7.68 2.56-17.92c5.12-15.36 17.92-79.36 20.48-107.52l2.56-15.36h215.04l-2.56-23.04c-2.56-12.8-2.56-30.72-7.68-40.96l-5.12-17.92h-192l2.56-35.84c2.56-17.92 2.56-76.8 2.56-130.56l2.56-89.6h179.2l-2.56-28.16c-2.56-33.28-7.68-46.08-17.92-51.2-5.12-2.56-46.08-2.56-163.84-2.56H186.88l5.12-23.04c2.56-12.8 12.8-40.96 20.48-66.56 10.24-25.6 17.92-46.08 17.92-48.64 0-5.12-17.92-2.56-38.4 5.12z m412.16 125.44c-2.56 10.24-2.56 750.08 2.56 757.76 2.56 5.12 7.68 5.12 38.4 5.12h33.28l10.24 33.28c5.12 17.92 10.24 38.4 12.8 40.96 2.56 5.12 2.56 10.24 2.56 10.24 2.56 0 10.24-2.56 17.92-10.24 122.88-76.8 107.52-74.24 209.92-74.24 64 0 84.48-2.56 84.48-5.12 2.56-2.56 2.56-107.52 2.56-384l2.56-381.44-209.92-2.56c-184.32 5.12-204.8 5.12-207.36 10.24z m335.36 376.32V819.2l-48.64 2.56-46.08 2.56-40.96 25.6c-23.04 10.24-46.08 25.6-53.76 30.72l-10.24 7.68-2.56-15.36c-2.56-7.68-5.12-23.04-10.24-33.28l-5.12-17.92h-33.28V522.24c0-166.4 2.56-302.08 2.56-302.08 2.56-2.56 56.32-2.56 125.44-2.56l122.88 2.56v296.96z"  /></svg>